Coordinates
version=1
nRows=32
nColumns=22
inDegrees=yes

Units are S.I. units (second, meters, Newtons, ...)
If the header above contains a line with 'inDegrees', this indicates whether rotational values are in degrees (yes) or radians (no).

endheader
time	pelvis_tilt	pelvis_list	pelvis_rotation	pelvis_tx	pelvis_ty	pelvis_tz	hip_flexion_r	hip_adduction_r	hip_rotation_r	knee_angle_r	ankle_angle_r	subtalar_angle_r	hip_flexion_l	hip_adduction_l	hip_rotation_l	knee_angle_l	ankle_angle_l	subtalar_angle_l	lumbar_extension	lumbar_bending	lumbar_rotation
      4.16000000	     -3.22052089	     -1.05286683	     -3.43307355	     -0.73643038	      0.90362386	      0.14846378	      0.09913859	      5.38529707	     -2.24868296	    -20.73022570	     18.37863472	     -5.66013396	     25.92156590	     -0.56786280	    -16.39666833	    -14.12689806	      9.06157417	     12.23878573	     -7.50981339	     -5.58810203	      7.54221918
      4.17000000	     -3.32871407	     -1.24347505	     -3.19750280	     -0.74448154	      0.90304639	      0.14808614	      0.77913512	      5.69226620	     -2.51084498	    -20.84490149	     18.65648386	     -6.44562632	     26.50626268	     -0.82069710	    -16.45767170	    -14.61038366	      8.71925883	     12.09235552	     -7.62598995	     -5.38957304	      7.39602065
      4.18000000	     -3.35838896	     -1.39701755	     -2.95898674	     -0.75240413	      0.90278553	      0.14770469	      1.50562036	      5.93567232	     -2.74286260	    -21.20197930	     18.85342863	     -7.03281978	     27.03119583	     -1.06290580	    -16.43264354	    -15.30792684	      8.42624582	     11.90112473	     -7.86287814	     -5.25631827	      7.17878008
      4.19000000	     -3.30623960	     -1.49625353	     -2.75731914	     -0.76014449	      0.90291215	      0.14734685	      2.24060160	      6.09661980	     -2.88551918	    -21.73602553	     18.93694169	     -7.49380186	     27.47198057	     -1.28988560	    -16.34766869	    -16.20213240	      8.18127523	     11.64052631	     -8.20798429	     -5.20671139	      6.98015050
      4.20000000	     -3.16130489	     -1.52566727	     -2.57109331	     -0.76763529	      0.90347106	      0.14696353	      2.93003329	      6.15721595	     -2.97039698	    -22.37461744	     18.90915095	     -7.81281729	     27.78971818	     -1.46469832	    -16.15919289	    -17.24407983	      7.98821204	     11.31472211	     -8.66238399	     -5.25420710	      6.78282512
      4.21000000	     -2.92121456	     -1.46800625	     -2.35795800	     -0.77479551	      0.90445948	      0.14649162	      3.50896996	      6.10176142	     -3.03495697	    -23.01404504	     18.78022567	     -7.97499541	     27.96746076	     -1.54530441	    -15.85978926	    -18.40146687	      7.87297499	     10.98886373	     -9.21396602	     -5.40756528	      6.48990015
      4.22000000	     -2.62925501	     -1.33616479	     -2.13382243	     -0.78163459	      0.90579190	      0.14595520	      3.98740967	      5.95122193	     -3.09109739	    -23.59120674	     18.55392875	     -8.06048799	     28.03935447	     -1.54279192	    -15.41424083	    -19.63969112	      7.78922413	     10.64103999	     -9.79938985	     -5.64825443	      6.17243418
      4.23000000	     -2.31890152	     -1.14089109	     -1.88135931	     -0.78814650	      0.90737446	      0.14533317	      4.36192360	      5.72094645	     -3.17774466	    -24.04012175	     18.25836737	     -8.11158589	     28.04221359	     -1.45584122	    -14.80868742	    -20.94556969	      7.73498076	     10.25016006	    -10.37359302	     -5.95303007	      5.81379848
      4.24000000	     -2.01700729	     -0.89399555	     -1.58630797	     -0.79433353	      0.90912056	      0.14464818	      4.63936925	      5.43447605	     -3.30257199	    -24.33015774	     17.91344444	     -8.16704597	     27.99857480	     -1.28463130	    -14.01508616	    -22.28755518	      7.70993096	      9.88351608	    -10.89906801	     -6.31215040	      5.39817165
      4.25000000	     -1.74706175	     -0.61123815	     -1.25991964	     -0.80021370	      0.91094045	      0.14389524	      4.83571811	      5.11092431	     -3.46064323	    -24.44928213	     17.55299234	     -8.26143733	     27.94355314	     -1.04852196	    -13.05281335	    -23.67362550	      7.70550325	      9.44823910	    -11.34504278	     -6.69730908	      4.95210100
      4.26000000	     -1.52196520	     -0.30166789	     -0.91745312	     -0.80580876	      0.91276380	      0.14307789	      4.97377484	      4.76133071	     -3.63923069	    -24.41688762	     17.19676390	     -8.41474830	     27.89478526	     -0.76137275	    -11.95858063	    -25.10284647	      7.72589567	      8.97053166	    -11.69449731	     -7.09502470	      4.49964609
      4.27000000	     -1.34866360	      0.02202804	     -0.57580200	     -0.81111820	      0.91452905	      0.14221733	      5.07237946	      4.40180037	     -3.81469034	    -24.25868384	     16.86087650	     -8.63187212	     27.86266539	     -0.44630814	    -10.78401712	    -26.57618068	      7.78143792	      8.45393122	    -11.93478251	     -7.49494193	      4.06209577
      4.28000000	     -1.23811940	      0.34702905	     -0.27268361	     -0.81615275	      0.91618273	      0.14135126	      5.15433236	      4.05138124	     -3.92317030	    -23.99107923	     16.57019186	     -8.98147338	     27.86226708	     -0.13781913	     -9.61611502	    -28.10007528	      7.90213503	      7.73458053	    -12.04764558	     -7.88589783	      3.68721320
      4.29000000	     -1.16101492	      0.65049283	     -0.00462070	     -0.82093929	      0.91772236	      0.14045432	      5.22885209	      3.71857740	     -4.02742377	    -23.68853174	     16.31003813	     -9.31298824	     27.86275787	      0.14413102	     -8.45390355	    -29.66287624	      8.03862221	      7.16064564	    -12.07537519	     -8.23946753	      3.37409776
      4.30000000	     -1.09793885	      0.91308901	      0.21523512	     -0.82548498	      0.91914697	      0.13954595	      5.29024545	      3.42197652	     -4.12156420	    -23.37311688	     16.07480216	     -9.59360772	     27.84603955	      0.36367168	     -7.36587811	    -31.26642703	      8.20725116	      6.69320351	    -12.04211422	     -8.53336102	      3.12163542
      4.31000000	     -1.09432127	      1.13333363	      0.32042392	     -0.82977688	      0.92039431	      0.13875122	      5.38456416	      3.18117295	     -4.08029123	    -23.02712463	     15.88274240	     -9.99236958	     27.84946954	      0.47861521	     -6.45898342	    -32.89510783	      8.42178647	      5.99764172	    -11.87995655	     -8.78710411	      3.02490385
      4.32000000	     -1.05744222	      1.26581737	      0.36443344	     -0.83385131	      0.92156356	      0.13797702	      5.44133430	      3.02221285	     -4.04523168	    -22.70293506	     15.68573601	    -10.23020042	     27.77494424	      0.47160730	     -5.64310321	    -34.53267314	      8.69582523	      5.54034949	    -11.71921190	     -8.93008466	      3.00578137
      4.33000000	     -1.04750941	      1.33974066	      0.28329073	     -0.83772909	      0.92258096	      0.13734766	      5.53362321	      2.93504659	     -3.87742838	    -22.40698110	     15.51825555	    -10.48415213	     27.67835905	      0.32705533	     -5.04555481	    -36.16165545	      8.95034723	      4.96913444	    -11.48450169	     -9.01381077	      3.10359686
      4.34000000	     -1.04607786	      1.38357487	      0.10991335	     -0.84144522	      0.92348104	      0.13680275	      5.66359515	      2.87636394	     -3.65092750	    -22.18029350	     15.34413152	    -10.70868958	     27.52315721	      0.10033939	     -4.60759635	    -37.73100659	      9.18632986	      4.33507698	    -11.21317111	     -9.06490583	      3.26395005
      4.35000000	     -1.02867594	      1.36271649	     -0.13694223	     -0.84499424	      0.92429374	      0.13631689	      5.77185323	      2.89056322	     -3.34119760	    -21.96162564	     15.26780619	    -10.84125073	     27.27951814	     -0.22514914	     -4.26349646	    -39.22280295	      9.40837655	      3.70289504	    -10.93678035	     -9.03776932	      3.48401004
      4.36000000	     -0.97621622	      1.28056963	     -0.46505268	     -0.84838698	      0.92506374	      0.13592856	      5.84931308	      2.97226440	     -2.97476453	    -21.76891937	     15.13272628	    -10.87215189	     26.91585962	     -0.65305175	     -4.03355069	    -40.60758688	      9.65135762	      3.20104766	    -10.68236389	     -8.94346372	      3.76213774
      4.37000000	     -0.90408072	      1.16264724	     -0.84627401	     -0.85162744	      0.92576734	      0.13557766	      5.89968829	      3.09100186	     -2.56605693	    -21.58306921	     15.05981087	    -10.84915417	     26.44863598	     -1.13474636	     -3.88942162	    -41.86542054	      9.87742968	      2.71742465	    -10.43792396	     -8.80303638	      4.06120768
      4.38000000	     -0.81847890	      1.03826237	     -1.25287284	     -0.85471465	      0.92641278	      0.13520362	      5.93341853	      3.20290113	     -2.19885473	    -21.41344067	     15.03769592	    -10.78194311	     25.88520327	     -1.62021702	     -3.82049172	    -42.97336838	     10.06993717	      2.04264720	    -10.19911100	     -8.64714019	      4.35652260
      4.39000000	     -0.69944844	      0.89166667	     -1.67767856	     -0.85764052	      0.92704517	      0.13482990	      5.91331688	      3.33494857	     -1.81599552	    -21.23238642	     15.01201741	    -10.68786505	     25.19458031	     -2.11202303	     -3.77788050	    -43.90038560	     10.27358850	      1.49754676	     -9.98940901	     -8.46170164	      4.63305777
      4.40000000	     -0.57307283	      0.72834855	     -2.09870086	     -0.86041024	      0.92763134	      0.13442127	      5.86481518	      3.47852621	     -1.44541376	    -21.03525721	     14.97808236	    -10.59516279	     24.41622531	     -2.59492994	     -3.75589583	    -44.64384528	     10.49317363	      1.03340306	     -9.78111065	     -8.24849920	      4.86655180
      4.41000000	     -0.43322769	      0.56446920	     -2.49244375	     -0.86298530	      0.92819549	      0.13393922	      5.77162052	      3.60676145	     -1.16131057	    -20.80696524	     14.97371277	    -10.49406770	     23.55355297	     -3.04717081	     -3.76983226	    -45.19865714	     10.70148589	      0.52899801	     -9.57834496	     -8.02798986	      5.05738055
      4.42000000	     -0.29636731	      0.40040913	     -2.84846465	     -0.86537787	      0.92873184	      0.13334252	      5.66005455	      3.72214376	     -0.93622156	    -20.56577955	     14.97445572	    -10.39273712	     22.62500756	     -3.46033279	     -3.80973800	    -45.54067900	     10.90337592	      0.06411111	     -9.36364559	     -7.79109131	      5.17329663
      4.43000000	     -0.17581931	      0.23684383	     -3.16631084	     -0.86762324	      0.92922632	      0.13264230	      5.55027618	      3.82862793	     -0.75816034	    -20.31742453	     14.98367964	    -10.28443392	     21.65984990	     -3.83047243	     -3.85675384	    -45.67262309	     11.09802430	     -0.31820017	     -9.13001706	     -7.54622453	      5.23896087
      4.44000000	     -0.12901540	      0.06734427	     -3.44229942	     -0.86975134	      0.92958351	      0.13180244	      5.51795394	      3.93875871	     -0.60655378	    -20.08583795	     15.03662137	    -10.18582707	     20.73228885	     -4.16193544	     -3.89813526	    -45.59553478	     11.32763966	     -0.51974945	     -8.81349324	     -7.27247007	      5.25342046
      4.45000000	     -0.04823857	     -0.06285298	     -3.69085235	     -0.87166416	      0.93005999	      0.13084604	      5.40995126	      3.99291116	     -0.50249961	    -19.79860866	     15.00319730	    -10.00640332	     19.70189097	     -4.41592573	     -4.00338822	    -45.24952129	     11.43950831	     -0.75913141	     -8.52725729	     -7.03955003	      5.24830307
      4.46000000	     -0.05677704	     -0.19129791	     -3.91129724	     -0.87349837	      0.93038785	      0.12975617	      5.41099438	      4.04669016	     -0.39530454	    -19.54780123	     15.00328670	     -9.82759513	     18.73838724	     -4.63000574	     -4.11455160	    -44.68055220	     11.58028062	     -0.83397367	     -8.14579524	     -6.78546329	      5.21311198
      4.47000000	     -0.10013482	     -0.30007641	     -4.11056821	     -0.87520696	      0.93068655	      0.12857662	      5.44159835	      4.08040120	     -0.27826096	    -19.29588865	     14.98975433	     -9.61447273	     17.77485584	     -4.78923031	     -4.25031869	    -43.86456766	     11.67771181	     -0.80984272	     -7.72673506	     -6.54619855	      5.15936585
